<?xml version="1.0" standalone="no"?>
<!DOCTYPE svg PUBLIC "-//W3C//DTD SVG 20010904//EN"
 "http://www.w3.org/TR/2001/REC-SVG-20010904/DTD/svg10.dtd">
<svg version="1.0" xmlns="http://www.w3.org/2000/svg"
 width="4300.000000pt" height="4167.000000pt" viewBox="0 0 4300.000000 4167.000000"
 preserveAspectRatio="xMidYMid meet">

<g transform="translate(0.000000,4167.000000) scale(0.100000,-0.100000)"
fill="#000000" stroke="none">
<path d="M21680 40021 c0 -33 -158 -2764 -164 -2828 l-4 -51 104 -7 c58 -4
108 -4 112 -1 3 4 24 321 47 706 22 384 43 702 47 705 3 3 331 -336 728 -753
l723 -759 134 -8 c74 -3 137 -4 140 -1 7 7 70 -60 -797 855 -382 404 -696 739
-698 745 -1 6 344 299 767 651 423 352 769 645 767 650 -1 6 -62 13 -134 18
l-131 7 -743 -620 c-675 -563 -743 -618 -746 -594 -2 14 13 309 33 655 21 347
34 633 31 636 -3 4 -53 9 -111 12 l-105 6 0 -24z"/>
<path d="M19158 39910 c-285 -30 -557 -124 -768 -265 -103 -69 -274 -237 -350
-342 -161 -226 -236 -463 -247 -775 -17 -488 132 -894 441 -1204 271 -270 577
-394 976 -394 433 0 783 121 1065 368 89 79 200 205 200 228 0 9 -34 39 -75
68 l-75 53 -67 -77 c-152 -176 -373 -316 -601 -379 -216 -61 -502 -74 -696
-32 -215 46 -374 129 -534 281 -212 201 -332 422 -398 730 -31 142 -34 441 -6
570 82 382 309 682 634 835 247 118 597 172 848 131 172 -29 372 -109 501
-202 l49 -35 62 68 c34 37 63 73 63 80 0 17 -126 98 -238 153 -235 116 -522
167 -784 140z"/>
<path d="M14925 38804 c-94 -36 -110 -46 -113 -66 -4 -35 -181 -3163 -179
-3164 1 -1 50 17 109 39 l107 41 5 61 c3 33 13 209 22 390 9 182 17 331 19
333 1 1 368 143 815 313 l813 311 278 -278 277 -277 99 37 c54 20 104 40 111
45 9 5 -332 350 -1120 1133 l-1133 1124 -110 -42z m1431 -1579 c-2 -8 -1448
-566 -1454 -560 -3 3 86 1791 94 1875 l6 64 678 -684 c374 -377 678 -689 676
-695z"/>
<path d="M27809 37413 c-349 -713 -634 -1303 -634 -1311 0 -16 858 -440 1026
-507 200 -80 446 -123 637 -111 194 13 331 49 494 131 475 239 788 712 840
1267 21 231 -22 504 -111 693 -114 244 -329 473 -588 627 -60 36 -1015 508
-1028 508 -1 0 -287 -584 -636 -1297z m1561 608 c389 -231 590 -577 590 -1017
0 -262 -79 -513 -236 -751 -184 -278 -510 -493 -827 -543 -173 -28 -422 5
-613 80 -95 38 -824 392 -824 400 0 3 234 485 521 1070 287 586 532 1088 545
1117 l23 52 378 -185 c208 -102 407 -202 443 -223z"/>
<path d="M11460 37030 c-531 -346 -965 -633 -965 -637 0 -4 22 -43 49 -86 l48
-78 27 18 c349 229 851 553 858 553 6 -1 472 -712 1416 -2166 l67 -104 90 60
c50 33 90 63 90 65 0 3 -331 514 -736 1135 -404 621 -733 1134 -730 1139 3 5
201 136 440 291 l433 283 -50 78 c-28 44 -56 79 -62 79 -5 -1 -444 -284 -975
-630z"/>
<path d="M31980 36583 c-1187 -1498 -1704 -2156 -1700 -2161 5 -8 1577 -1253
1597 -1265 14 -9 148 152 136 163 -4 4 -329 260 -721 570 -392 310 -711 567
-710 572 4 12 702 897 708 897 3 0 303 -235 668 -524 365 -289 667 -525 672
-525 11 0 122 141 118 151 -2 4 -300 242 -663 529 -363 287 -661 525 -663 529
-2 6 650 836 686 873 16 16 57 -14 717 -536 385 -305 702 -553 706 -551 3 2
32 38 64 80 57 75 58 77 39 95 -10 10 -356 284 -769 610 -412 326 -758 599
-767 607 -15 13 -26 3 -118 -114z"/>
<path d="M9221 35139 c-174 -34 -376 -149 -579 -329 -231 -206 -391 -439 -484
-710 -30 -88 -32 -104 -32 -225 0 -116 3 -138 28 -210 52 -150 156 -283 291
-374 104 -70 158 -86 280 -85 254 2 405 69 915 404 410 269 525 326 714 355
172 25 271 -8 396 -134 88 -89 134 -169 156 -273 29 -134 6 -246 -83 -421
-124 -244 -346 -478 -569 -603 -90 -50 -235 -108 -340 -135 -114 -29 -305 -32
-403 -5 -35 9 -64 16 -66 14 -7 -9 -66 -200 -63 -203 10 -10 132 -36 217 -46
296 -36 675 101 974 351 249 209 471 538 538 798 38 149 20 330 -46 467 -127
265 -401 439 -666 421 -222 -15 -418 -110 -950 -463 -396 -262 -575 -335 -744
-304 -135 25 -245 113 -312 249 -35 69 -38 83 -41 179 -10 248 92 463 333 708
182 185 419 337 580 370 82 17 185 19 274 5 35 -6 66 -9 68 -6 3 3 50 175 53
192 0 1 -28 7 -63 13 -74 13 -311 13 -376 0z"/>
<path d="M34002 33048 l-740 -1392 61 -74 c34 -40 69 -82 77 -92 14 -18 80 2
1480 441 806 253 1484 465 1507 472 l43 13 -76 91 c-71 86 -77 91 -102 83
-318 -105 -2706 -860 -2709 -857 -2 3 300 570 671 1261 372 690 676 1260 676
1266 0 10 -137 180 -145 180 -2 0 -336 -626 -743 -1392z"/>
<path d="M35995 30424 c-704 -370 -1284 -675 -1289 -677 -7 -2 893 -1735 943
-1815 6 -10 29 -1 97 34 49 26 91 49 93 50 2 2 -189 369 -423 816 -382 727
-425 814 -410 825 41 30 995 524 1002 519 5 -3 186 -343 403 -755 l393 -750
86 46 c47 26 86 47 88 48 1 1 -176 341 -393 756 -353 672 -394 755 -380 766
39 28 977 514 986 511 6 -2 194 -352 418 -778 223 -426 410 -780 413 -786 5
-8 36 3 95 34 49 25 90 46 92 48 3 3 -886 1704 -918 1755 l-16 26 -1280 -673z"/>
<path d="M5517 30725 l-47 -95 1078 -539 c611 -306 1071 -542 1062 -545 -8 -3
-690 -157 -1515 -342 -825 -185 -1501 -337 -1501 -337 -1 -1 -11 -20 -22 -43
l-21 -41 1295 -644 c713 -354 1300 -645 1304 -647 5 -2 31 40 58 93 l48 97
-1075 538 c-606 303 -1069 540 -1061 543 8 3 674 155 1480 337 806 182 1482
336 1503 341 29 8 42 18 54 44 9 19 14 37 12 40 -5 4 -2598 1295 -2602 1295
-2 0 -24 -43 -50 -95z"/>
<path d="M37418 27357 c-757 -227 -1379 -414 -1382 -417 -5 -6 517 -1766 526
-1775 3 -3 49 6 101 21 87 25 96 30 91 48 -3 12 -108 365 -233 786 l-228 765
26 11 c14 6 598 181 1297 389 l1270 378 -30 103 c-22 74 -35 104 -46 103 -8 0
-635 -186 -1392 -412z"/>
<path d="M4534 27029 c-137 -16 -300 -80 -419 -164 -123 -87 -237 -237 -296
-388 -27 -70 -359 -1374 -359 -1412 0 -8 44 -24 123 -43 507 -127 2685 -662
2693 -662 12 0 59 194 50 208 -3 5 -20 12 -38 16 -142 27 -1018 251 -1018 260
0 6 41 181 92 388 l92 378 657 357 658 358 35 140 c19 77 34 140 33 141 -1 0
-299 -163 -661 -362 -363 -200 -661 -362 -663 -361 -1 2 5 39 14 83 24 118 22
336 -5 436 -93 345 -389 583 -782 628 -95 11 -105 11 -206 -1z m233 -245 c293
-60 503 -241 559 -480 12 -51 15 -102 12 -194 -4 -120 -10 -146 -137 -665 -74
-297 -137 -544 -142 -549 -8 -9 -1326 309 -1343 324 -5 5 53 255 128 562 121
489 142 565 181 644 71 144 159 235 290 299 143 71 298 91 452 59z"/>
<path d="M38140 24409 c-455 -58 -868 -298 -1085 -629 -102 -155 -181 -365
-211 -555 -23 -151 -15 -466 15 -606 45 -208 129 -404 241 -561 266 -374 775
-600 1291 -574 438 21 777 164 1060 445 155 154 244 292 309 481 125 366 94
878 -75 1235 -108 227 -323 461 -540 588 -136 80 -336 145 -525 172 -113 16
-371 18 -480 4z m495 -224 c380 -67 699 -294 859 -612 86 -172 125 -345 133
-593 6 -198 -7 -316 -53 -461 -82 -259 -261 -477 -521 -633 -391 -234 -969
-256 -1373 -51 -265 134 -493 404 -583 691 -80 252 -88 556 -22 802 64 239
219 454 442 614 305 220 726 311 1118 243z"/>
<path d="M3188 22379 c-25 -552 -45 -1004 -45 -1005 7 -4 2901 -133 2905 -129
3 2 24 422 48 932 23 511 45 972 48 1025 l6 97 -105 3 -105 3 -5 -30 c-2 -16
-22 -428 -44 -914 -22 -486 -42 -886 -46 -889 -7 -8 -1134 43 -1142 52 -4 4
49 1282 69 1661 l3 40 -97 3 c-95 3 -98 2 -102 -20 -2 -13 -21 -394 -41 -848
-21 -454 -39 -827 -41 -829 -4 -4 -1126 48 -1131 53 -2 1 15 402 38 890 23
488 39 889 37 891 -2 3 -49 8 -104 11 l-99 7 -47 -1004z"/>
<path d="M36897 20273 c-4 -8 -32 -178 -32 -198 0 -5 223 -46 495 -90 465 -75
495 -81 493 -100 -2 -11 -42 -258 -90 -550 -80 -487 -87 -541 -86 -665 1 -167
28 -284 99 -420 159 -308 539 -508 924 -487 414 23 722 263 834 650 22 75 242
1394 234 1402 -3 3 -2839 465 -2857 465 -5 0 -12 -3 -14 -7z m1908 -522 c602
-98 720 -120 723 -133 6 -32 -170 -1083 -194 -1158 -33 -106 -87 -193 -174
-280 -126 -128 -278 -188 -496 -197 -152 -7 -235 10 -366 73 -223 109 -341
242 -400 451 -38 138 -32 217 66 813 47 289 86 531 86 538 0 6 8 12 18 11 9 0
341 -53 737 -118z"/>
<path d="M4692 19759 c-783 -152 -1426 -279 -1428 -282 -5 -5 42 -256 49 -263
3 -3 1806 -733 1861 -753 15 -6 -99 -122 -605 -616 -343 -334 -671 -654 -728
-711 l-104 -103 23 -131 c19 -108 26 -131 39 -127 9 2 648 127 1421 277 773
150 1409 276 1414 280 12 12 -26 210 -41 210 -7 0 -578 -110 -1270 -245 -691
-134 -1258 -243 -1260 -242 -1 2 326 324 728 716 l729 714 -6 36 c-4 20 -7 36
-8 37 0 0 -426 173 -945 385 -747 303 -938 385 -920 391 13 4 584 116 1269
249 685 133 1246 243 1248 244 2 2 -38 209 -42 211 0 0 -641 -124 -1424 -277z"/>
<path d="M36243 17052 c-4 -9 -170 -440 -370 -956 -200 -516 -363 -942 -363
-945 0 -9 195 -80 198 -72 422 1096 663 1706 674 1703 49 -11 1058 -408 1058
-417 0 -6 -135 -359 -300 -785 -165 -426 -301 -781 -303 -788 -2 -14 169 -90
179 -80 2 3 142 360 310 794 168 433 306 790 308 791 4 4 1040 -398 1049 -407
5 -4 -134 -376 -308 -826 -175 -451 -318 -825 -319 -833 -1 -14 141 -80 174
-80 14 -1 62 120 690 1745 l47 121 -1236 478 c-680 263 -1291 500 -1359 526
-109 42 -124 46 -129 31z"/>
<path d="M34966 14119 c-50 -76 -57 -92 -45 -103 8 -7 214 -142 459 -301 245
-158 446 -289 448 -290 2 -2 -95 -153 -215 -338 l-218 -335 -680 -112 c-374
-62 -706 -117 -739 -122 l-58 -11 -75 -114 c-41 -63 -73 -117 -70 -120 3 -2
335 52 739 120 403 69 734 124 735 123 2 -2 -24 -54 -56 -117 -33 -63 -72
-154 -87 -204 -24 -79 -27 -107 -28 -230 -1 -155 11 -213 69 -341 44 -96 93
-166 173 -247 303 -309 768 -376 1126 -163 77 46 213 173 273 256 87 121 745
1140 741 1150 -2 8 -2358 1546 -2418 1580 -12 6 -29 -12 -74 -81z m1616 -1185
c310 -201 569 -372 577 -379 12 -12 -33 -85 -289 -480 -167 -256 -324 -489
-349 -518 -99 -114 -216 -189 -346 -222 -84 -21 -235 -19 -327 4 -232 60 -455
255 -528 464 -47 133 -43 272 10 420 38 102 60 140 348 581 129 199 255 391
278 429 24 37 48 67 53 67 5 0 263 -165 573 -366z"/>
</g>
</svg>
